<?xml version="1.0" encoding="utf-8"?>
<!-- Generator: Adobe Illustrator 27.0.0, SVG Export Plug-In . SVG Version: 6.00 Build 0)  -->
<svg version="1.1" id="Layer_1" xmlns="http://www.w3.org/2000/svg" xmlns:xlink="http://www.w3.org/1999/xlink" x="0px" y="0px"
	 viewBox="0 0 160 24" style="enable-background:new 0 0 160 24;" xml:space="preserve">
<style type="text/css">
	.st0{fill:#FF3333;}
	.st1{fill:#5454ED;}
</style>
<g>
	<path class="st0" d="M2.7,18.7V5.6h2.7v10.9h5.7v2.2H2.7z"/>
	<path class="st0" d="M15.6,18.9c-0.9,0-1.7-0.2-2.3-0.7s-0.9-1.2-0.9-2.2c0-0.7,0.2-1.3,0.5-1.7s0.8-0.7,1.4-0.9S15.4,13,16,13
		c0.8-0.1,1.5-0.2,1.8-0.3s0.6-0.3,0.6-0.6v0c0-0.4-0.1-0.7-0.4-1s-0.6-0.3-1.1-0.3c-0.5,0-0.9,0.1-1.2,0.3s-0.5,0.5-0.6,0.8
		l-2.4-0.4c0.3-0.8,0.8-1.5,1.5-2s1.7-0.7,2.8-0.7c0.7,0,1.4,0.1,2,0.3s1.2,0.6,1.6,1.1s0.6,1.1,0.6,1.9v6.6h-2.5v-1.4h-0.1
		c-0.2,0.5-0.6,0.8-1.1,1.1C16.9,18.8,16.3,18.9,15.6,18.9z M16.3,17.1c0.6,0,1.1-0.2,1.5-0.5s0.6-0.8,0.6-1.3v-1.1
		c-0.1,0.1-0.3,0.1-0.5,0.2c-0.2,0.1-0.5,0.1-0.8,0.1c-0.3,0-0.5,0.1-0.7,0.1c-0.5,0.1-0.9,0.2-1.2,0.4s-0.4,0.5-0.4,0.9
		c0,0.4,0.1,0.7,0.4,0.9S15.9,17.1,16.3,17.1z"/>
	<path class="st0" d="M23.3,18.7V8.9h2.5v1.7H26c0.2-0.6,0.5-1.1,0.9-1.4s0.9-0.5,1.5-0.5c0.3,0,0.6,0,0.9,0.1v2.4
		c-0.1,0-0.3-0.1-0.5-0.1s-0.4,0-0.6,0c-0.6,0-1.1,0.2-1.5,0.6s-0.6,0.9-0.6,1.5v5.6H23.3z"/>
	<path class="st0" d="M33.1,18.9c-0.9,0-1.7-0.2-2.3-0.7s-0.9-1.2-0.9-2.2c0-0.7,0.2-1.3,0.5-1.7s0.8-0.7,1.4-0.9s1.2-0.3,1.8-0.4
		c0.8-0.1,1.5-0.2,1.8-0.3s0.6-0.3,0.6-0.6v0c0-0.4-0.1-0.7-0.4-1s-0.6-0.3-1.1-0.3c-0.5,0-0.9,0.1-1.2,0.3s-0.5,0.5-0.6,0.8
		l-2.4-0.4c0.3-0.8,0.8-1.5,1.5-2s1.7-0.7,2.8-0.7c0.7,0,1.4,0.1,2,0.3s1.2,0.6,1.6,1.1s0.6,1.1,0.6,1.9v6.6h-2.5v-1.4H36
		c-0.2,0.5-0.6,0.8-1.1,1.1C34.5,18.8,33.9,18.9,33.1,18.9z M33.9,17.1c0.6,0,1.1-0.2,1.5-0.5s0.6-0.8,0.6-1.3v-1.1
		c-0.1,0.1-0.3,0.1-0.5,0.2c-0.2,0.1-0.5,0.1-0.8,0.1c-0.3,0-0.5,0.1-0.7,0.1c-0.5,0.1-0.9,0.2-1.2,0.4s-0.4,0.5-0.4,0.9
		c0,0.4,0.1,0.7,0.4,0.9S33.4,17.1,33.9,17.1z"/>
	<path class="st0" d="M43.3,18.7l-3.6-9.8h2.8l1.7,5.1c0.1,0.4,0.3,0.9,0.4,1.3s0.2,0.9,0.3,1.4c0.1-0.5,0.2-0.9,0.3-1.3
		s0.2-0.9,0.4-1.3l1.6-5.1h2.8l-3.6,9.8H43.3z"/>
	<path class="st0" d="M55.4,18.9c-1,0-1.9-0.2-2.6-0.6s-1.3-1-1.7-1.7c-0.4-0.8-0.6-1.7-0.6-2.7c0-1,0.2-1.9,0.6-2.7
		s0.9-1.4,1.6-1.8s1.5-0.6,2.5-0.6c0.9,0,1.6,0.2,2.3,0.5s1.3,0.9,1.7,1.7s0.6,1.7,0.6,2.8v0.7h-6.7c0,0.8,0.3,1.4,0.7,1.8
		c0.4,0.4,1,0.6,1.6,0.6c0.5,0,0.9-0.1,1.2-0.3c0.3-0.2,0.6-0.5,0.7-0.9l2.4,0.4c-0.2,0.8-0.7,1.5-1.5,2S56.6,18.9,55.4,18.9z
		 M53.2,12.8h4.2c-0.1-0.6-0.3-1.1-0.6-1.5s-0.8-0.6-1.4-0.6c-0.6,0-1.1,0.2-1.5,0.6S53.3,12.2,53.2,12.8z"/>
	<path class="st0" d="M64.4,5.6v13.1h-2.6V5.6H64.4z"/>
</g>
<g>
	<path d="M74.6,16.3v-3.5h-3.5v-1.1h3.5V8.2h1.1v3.5h3.5v1.1h-3.5v3.5H74.6z"/>
</g>
<g>
	<path class="st1" d="M88.4,18.8L84.9,5.7h2.9l1.5,6.4c0.1,0.6,0.3,1.2,0.4,1.9s0.2,1.4,0.3,2c0.1-0.7,0.2-1.4,0.4-2
		s0.3-1.3,0.4-1.9l1.6-6.4h2.8l1.6,6.4c0.1,0.6,0.3,1.2,0.4,1.9s0.2,1.4,0.4,2c0.1-0.7,0.2-1.3,0.3-2s0.2-1.3,0.4-1.9l1.5-6.4h2.9
		l-3.5,13.1h-3.1l-1.7-6.7c-0.1-0.5-0.2-1-0.3-1.5S93.8,9.5,93.7,9c-0.1,0.5-0.2,1.1-0.3,1.6s-0.2,1-0.3,1.5l-1.7,6.7H88.4z"/>
	<path class="st1" d="M107.7,19c-1,0-1.8-0.2-2.6-0.6s-1.3-1-1.7-1.8c-0.4-0.8-0.6-1.6-0.6-2.7c0-1,0.2-1.9,0.6-2.7s0.9-1.4,1.7-1.8
		s1.6-0.6,2.6-0.6s1.8,0.2,2.6,0.6s1.3,1,1.7,1.8s0.6,1.6,0.6,2.7c0,1-0.2,1.9-0.6,2.7c-0.4,0.8-0.9,1.4-1.7,1.8S108.7,19,107.7,19z
		 M107.7,16.9c0.7,0,1.2-0.3,1.6-0.9c0.4-0.6,0.5-1.3,0.5-2.1c0-0.9-0.2-1.6-0.5-2.1s-0.9-0.8-1.6-0.8s-1.2,0.3-1.6,0.8
		s-0.5,1.3-0.5,2.1c0,0.9,0.2,1.6,0.5,2.1C106.5,16.6,107,16.9,107.7,16.9z"/>
	<path class="st1" d="M114.4,18.8V9h2.5v1.7h0.1c0.2-0.6,0.5-1.1,0.9-1.4s0.9-0.5,1.5-0.5c0.3,0,0.6,0,0.9,0.1v2.4
		c-0.1,0-0.3-0.1-0.5-0.1s-0.4,0-0.6,0c-0.6,0-1.1,0.2-1.5,0.6s-0.6,0.9-0.6,1.5v5.6H114.4z"/>
	<path class="st1" d="M122,18.8V5.7h2.6v7h0.1L128,9h3l-3.7,4.3l3.9,5.6h-3.1l-2.7-4l-0.8,0.9v3.2H122z"/>
	<path class="st1" d="M138.2,19c-1.2,0-2.2-0.3-3.1-0.8s-1.7-1.3-2.2-2.3s-0.8-2.2-0.8-3.6c0-1.4,0.3-2.6,0.8-3.6s1.3-1.8,2.2-2.3
		s2-0.8,3.1-0.8c1.2,0,2.2,0.3,3.1,0.8s1.6,1.3,2.2,2.3s0.8,2.2,0.8,3.6c0,1.4-0.3,2.6-0.8,3.6s-1.3,1.8-2.2,2.3S139.4,19,138.2,19z
		 M138.2,16.6c1,0,1.8-0.4,2.5-1.1c0.6-0.7,0.9-1.8,0.9-3.2c0-1.4-0.3-2.5-0.9-3.2s-1.4-1.1-2.5-1.1c-1,0-1.8,0.4-2.5,1.1
		s-0.9,1.8-0.9,3.2c0,1.4,0.3,2.5,0.9,3.2C136.4,16.2,137.2,16.6,138.2,16.6z"/>
	<path class="st1" d="M151.1,19c-1.6,0-2.8-0.4-3.8-1.1c-0.9-0.7-1.4-1.8-1.5-3.2h2.6c0,0.7,0.3,1.2,0.8,1.5
		c0.5,0.3,1.1,0.5,1.8,0.5c0.7,0,1.3-0.2,1.7-0.5c0.4-0.3,0.7-0.7,0.7-1.2c0-0.5-0.2-0.8-0.6-1s-1-0.4-1.7-0.6l-1.4-0.4
		c-1.1-0.3-2-0.7-2.6-1.3s-0.9-1.3-0.9-2.3c0-0.8,0.2-1.5,0.6-2.1s1-1.1,1.7-1.4s1.6-0.5,2.5-0.5c1,0,1.8,0.2,2.5,0.5
		s1.3,0.8,1.7,1.4s0.6,1.3,0.6,2h-2.6c0-0.5-0.3-0.9-0.7-1.2c-0.4-0.3-0.9-0.4-1.6-0.4c-0.7,0-1.2,0.1-1.6,0.4
		c-0.4,0.3-0.6,0.6-0.6,1.1c0,0.5,0.2,0.8,0.6,1.1s0.9,0.4,1.5,0.6l1.2,0.3c0.7,0.2,1.4,0.4,2,0.7s1.1,0.7,1.4,1.2s0.5,1.1,0.5,1.9
		c0,1.2-0.4,2.1-1.3,2.9C154,18.6,152.7,19,151.1,19z"/>
</g>
</svg>
