<?xml version="1.0" encoding="utf-8"?>
<!-- Generator: Adobe Illustrator 27.0.0, SVG Export Plug-In . SVG Version: 6.00 Build 0)  -->
<svg version="1.1" id="Layer_1" xmlns="http://www.w3.org/2000/svg" xmlns:xlink="http://www.w3.org/1999/xlink" x="0px" y="0px"
	 viewBox="0 0 24 24" style="enable-background:new 0 0 24 24;" xml:space="preserve">
<style type="text/css">
	.st0{fill:#5454ED;}
	.st1{fill:#FF3333;}
</style>
<g>
	<path class="st0" d="M19.6,5.1L18,11.9c-0.1,0.6-0.3,1.3-0.4,2c-0.1,0.7-0.2,1.4-0.3,2.1c-0.1-0.7-0.2-1.4-0.4-2.1
		c-0.1-0.7-0.3-1.4-0.4-2l-1.7-6.8h-2.9l-0.1,0.3l-3,13.5h2.1l1.8-7.1c0.1-0.5,0.2-1.1,0.4-1.6c0.1-0.6,0.2-1.1,0.3-1.7
		c0.1,0.6,0.2,1.2,0.3,1.7c0.1,0.5,0.2,1.1,0.3,1.6l1.8,7.1H19l3.7-13.8H19.6z"/>
</g>
<g>
	<path class="st1" d="M2,18.9V5.1h2.8v11.5h6.7l-0.6,2.3H2z"/>
</g>
</svg>
